<?xml version="1.0" standalone="no"?>
<!DOCTYPE svg PUBLIC "-//W3C//DTD SVG 20010904//EN"
 "http://www.w3.org/TR/2001/REC-SVG-20010904/DTD/svg10.dtd">
<svg version="1.0" xmlns="http://www.w3.org/2000/svg"
 width="500.000000pt" height="500.000000pt" viewBox="0 0 500.000000 500.000000"
 preserveAspectRatio="xMidYMid meet">

<g transform="translate(0.000000,500.000000) scale(0.100000,-0.100000)"
fill="#000000" stroke="none">
<path d="M2298 4096 c-53 -6 -99 -14 -102 -16 -2 -3 4 -66 14 -140 10 -74 21
-170 25 -213 l8 -79 61 7 c33 4 64 10 67 14 4 3 2 34 -3 69 -6 34 -8 65 -4 69
3 3 31 8 61 11 l55 4 0 56 0 55 -64 -7 -64 -6 -7 31 c-4 17 -4 33 -1 36 3 3
37 8 76 11 l70 5 0 53 0 54 -47 -1 c-27 -1 -92 -7 -145 -13z"/>
<path d="M2637 4103 c-3 -4 -12 -69 -21 -143 -9 -74 -24 -166 -32 -204 -8 -38
-11 -72 -7 -77 4 -4 36 -10 69 -14 l62 -7 7 71 c8 79 9 80 88 62 42 -10 46 -6
61 66 8 35 5 37 -74 47 -46 7 -46 7 -42 42 4 33 7 36 32 31 15 -3 50 -9 77
-13 l50 -6 12 47 c7 27 8 51 4 55 -4 4 -62 15 -128 24 -66 9 -127 19 -137 22
-9 3 -18 1 -21 -3z"/>
<path d="M3061 3993 c-5 -10 -28 -63 -51 -118 -23 -55 -60 -135 -81 -178 l-40
-78 53 -23 c29 -13 92 -42 140 -64 l88 -41 26 45 c16 26 23 49 18 54 -5 5 -40
22 -79 38 -38 17 -71 34 -72 39 -2 5 3 17 10 27 12 17 16 16 71 -8 32 -14 60
-26 62 -26 5 0 44 78 44 88 0 5 -27 21 -60 35 -64 28 -68 33 -47 61 13 17 17
16 86 -18 39 -20 76 -34 82 -31 10 7 52 85 47 90 -7 6 -272 125 -279 125 -5 0
-12 -8 -18 -17z"/>
<path d="M1859 3986 c-103 -37 -159 -105 -159 -194 0 -111 75 -229 161 -252
87 -24 202 32 247 120 19 37 22 54 17 99 -11 101 -66 189 -140 222 -47 22 -77
23 -126 5z m69 -128 c25 -28 72 -126 72 -152 0 -49 -70 -75 -103 -38 -25 27
-67 124 -67 155 0 22 7 31 33 42 42 18 40 19 65 -7z"/>
<path d="M1479 3770 c-76 -40 -139 -136 -139 -210 1 -63 84 -180 154 -217 73
-38 165 -11 245 71 l44 45 -28 41 c-16 22 -32 43 -36 46 -5 3 -28 -16 -52 -41
-24 -25 -52 -45 -62 -45 -43 0 -135 89 -135 131 0 25 30 58 71 79 l39 20 -28
50 c-15 27 -29 50 -32 49 -3 0 -21 -9 -41 -19z"/>
<path d="M3420 3688 c-41 -51 -104 -123 -139 -161 -54 -57 -62 -70 -50 -81 28
-24 184 -160 202 -175 16 -13 21 -11 52 19 32 31 45 60 28 60 -5 0 -34 24 -67
53 l-58 52 21 19 c20 19 21 18 66 -23 24 -22 48 -41 53 -41 4 0 24 16 43 36
l34 35 -53 47 c-54 47 -54 47 -33 66 20 18 21 18 84 -38 l64 -55 38 39 c21 22
37 41 34 43 -2 2 -54 47 -116 100 -61 53 -115 97 -120 97 -4 0 -42 -42 -83
-92z"/>
<path d="M2103 3192 c-32 -25 -57 -90 -42 -108 16 -20 861 -21 877 -1 16 19 2
65 -30 97 l-30 30 -376 0 c-342 0 -379 -2 -399 -18z"/>
<path d="M1940 3033 c-17 -12 -20 -25 -20 -97 0 -50 5 -87 12 -94 17 -17 1119
-17 1136 0 7 7 12 44 12 95 0 76 -2 84 -24 98 -20 13 -91 15 -560 14 -441 -2
-540 -5 -556 -16z"/>
<path d="M1883 2812 c-16 -11 -39 -61 -62 -136 -26 -85 -29 -260 -6 -351 48
-184 225 -419 243 -322 2 10 -17 40 -47 73 -56 61 -122 189 -140 269 -27 122
-17 265 24 368 14 33 25 68 25 78 0 19 -21 31 -37 21z"/>
<path d="M2012 2797 c-7 -8 -8 -33 -3 -71 6 -45 5 -59 -6 -63 -29 -11 -35 -47
-33 -206 1 -179 5 -191 66 -203 19 -3 34 -9 34 -13 0 -19 51 -407 56 -426 3
-13 15 -32 26 -42 19 -17 45 -18 349 -18 322 0 329 0 350 21 17 18 25 48 40
165 44 326 40 312 73 315 15 2 37 11 47 20 17 15 19 33 19 186 0 158 -1 169
-21 189 -14 14 -24 18 -28 10 -5 -7 -101 -11 -306 -11 -620 -1 -647 -1 -643
12 3 9 124 12 479 12 l474 1 7 55 c6 45 4 57 -9 67 -24 19 -956 18 -971 0z
m545 -203 c114 -66 137 -220 41 -270 -130 -67 -320 115 -255 246 31 63 129 74
214 24z m363 -324 c0 -11 -57 -12 -525 -11 -347 0 -315 -1 -315 11 0 7 147 10
420 10 273 0 420 -3 420 -10z m-240 -436 c0 -11 -36 -14 -190 -14 -111 0 -190
4 -190 9 0 14 35 17 218 18 131 0 162 -2 162 -13z"/>
<path d="M2396 2588 c-40 -30 -6 -67 82 -88 50 -13 79 -38 87 -77 4 -16 11
-39 16 -52 l10 -24 21 20 c44 45 7 158 -68 204 -45 27 -122 36 -148 17z"/>
<path d="M2350 2516 c0 -50 58 -134 110 -160 33 -17 88 -27 94 -18 3 5 -2 32
-10 60 -17 57 -38 74 -109 86 -22 4 -50 17 -62 29 -20 18 -23 18 -23 3z"/>
<path d="M3084 2795 c-4 -8 3 -39 15 -68 38 -90 54 -215 41 -318 -17 -146 -68
-258 -157 -350 -48 -50 -54 -82 -16 -87 16 -2 35 13 78 65 66 79 118 181 139
273 21 86 21 268 1 345 -30 116 -83 189 -101 140z"/>
<path d="M1612 1453 c-49 -65 -96 -124 -105 -132 -9 -7 -14 -17 -11 -22 3 -5
41 -36 84 -69 l78 -60 26 31 c14 17 26 34 26 39 0 5 -18 21 -40 37 l-39 29 80
100 81 99 -38 32 c-22 18 -42 33 -46 33 -4 0 -47 -53 -96 -117z"/>
<path d="M3275 1553 c-84 -44 -124 -115 -102 -181 18 -55 65 -75 140 -61 32 5
62 7 68 4 19 -13 -22 -44 -67 -51 -24 -3 -44 -10 -44 -16 0 -12 39 -88 46 -88
2 0 24 9 47 21 99 50 143 127 111 194 -24 51 -44 58 -136 50 -77 -6 -94 0 -64
24 8 7 30 15 50 18 41 6 43 17 19 68 -19 39 -25 41 -68 18z"/>
<path d="M1891 1373 c-66 -33 -121 -144 -107 -217 19 -100 163 -161 252 -105
63 39 112 153 94 219 -25 91 -151 146 -239 103z m110 -83 c27 -15 24 -56 -8
-121 -31 -60 -49 -69 -83 -41 -23 18 -23 22 -11 63 17 58 49 109 67 109 9 0
24 -5 35 -10z"/>
<path d="M2915 1345 c-43 -18 -81 -37 -83 -43 -1 -5 19 -63 46 -128 28 -66 55
-136 62 -156 l11 -37 42 16 c60 23 62 27 43 74 -26 64 -6 73 47 21 23 -23 47
-42 51 -42 16 0 96 55 96 65 0 6 -25 25 -56 43 -47 29 -54 37 -47 55 4 12 8
42 8 66 -1 36 -6 48 -33 72 -43 38 -84 37 -187 -6z m111 -91 c15 -57 -36 -78
-55 -23 -15 42 -14 47 7 51 27 7 42 -2 48 -28z"/>
<path d="M2190 1284 c0 -11 9 -92 21 -180 l22 -162 45 -6 c91 -12 82 -21 162
154 40 88 71 163 68 166 -3 2 -28 7 -55 11 -49 5 -50 5 -56 -23 -3 -16 -23
-69 -44 -119 l-38 -90 -6 65 c-4 36 -7 93 -8 128 -1 52 -4 62 -18 62 -10 0
-35 3 -55 6 -33 6 -38 4 -38 -12z"/>
<path d="M2660 1283 c-63 -9 -116 -17 -118 -18 -2 -2 6 -67 17 -145 12 -78 21
-155 21 -171 0 -34 -7 -33 130 -14 58 8 109 15 113 15 5 0 7 19 5 43 -3 47 -2
46 -94 33 -46 -7 -52 -6 -57 13 -6 24 9 31 64 31 l39 0 0 46 0 47 -61 -6 c-58
-7 -60 -6 -57 16 2 17 10 23 38 25 19 1 50 5 68 8 32 5 33 7 30 46 -2 23 -7
42 -13 43 -5 1 -62 -4 -125 -12z"/>
</g>
</svg>
